<?xml version="1.0" standalone="no"?>
<!DOCTYPE svg PUBLIC "-//W3C//DTD SVG 20010904//EN"
 "http://www.w3.org/TR/2001/REC-SVG-20010904/DTD/svg10.dtd">
<svg version="1.0" xmlns="http://www.w3.org/2000/svg"
 width="512.000000pt" height="512.000000pt" viewBox="0 0 512.000000 512.000000"
 preserveAspectRatio="xMidYMid meet">

<g transform="translate(0.000000,512.000000) scale(0.100000,-0.100000)"
fill="#000000" stroke="none">
<path d="M2845 4843 c-231 -49 -439 -194 -575 -402 l-16 -24 -229 64 c-195 54
-242 64 -310 64 l-80 0 -190 -91 c-580 -279 -603 -294 -651 -399 -31 -68 -784
-2825 -791 -2896 -11 -112 49 -234 147 -301 51 -35 130 -58 1085 -319 1003
-274 1032 -281 1105 -277 122 7 229 77 279 181 11 23 106 354 210 736 104 381
191 695 194 697 2 2 44 -16 93 -40 155 -77 343 -126 486 -126 l58 0 54 -109
c61 -121 73 -132 190 -172 37 -13 70 -29 73 -36 3 -6 -2 -46 -11 -88 -20 -98
-20 -128 1 -172 19 -42 55 -65 141 -94 l64 -21 -7 -37 c-27 -141 -32 -184 -24
-225 17 -93 68 -159 149 -194 25 -11 145 -46 268 -77 201 -53 226 -57 261 -47
21 7 50 23 64 37 33 34 237 505 237 548 0 21 -88 211 -265 576 -146 299 -265
547 -265 552 0 5 24 46 54 91 141 217 200 415 199 668 -3 520 -339 975 -833
1127 -47 14 -86 27 -87 28 -2 1 -9 35 -17 77 -67 348 -347 630 -698 702 -96
20 -269 19 -363 -1z m410 -187 c153 -52 292 -156 378 -286 40 -59 91 -180 103
-244 l7 -39 -44 6 c-63 8 -241 -9 -333 -33 -43 -11 -117 -36 -164 -55 -48 -20
-94 -38 -102 -41 -10 -3 -37 29 -84 101 -109 167 -129 180 -386 250 -96 26
-181 51 -188 55 -11 5 -3 20 30 61 92 113 229 199 378 239 111 30 294 23 405
-14z m-1004 -414 c279 -76 519 -146 533 -155 15 -10 56 -63 93 -118 l66 -100
-93 -87 c-104 -96 -188 -203 -240 -305 -19 -37 -38 -67 -41 -67 -4 0 -34 29
-67 64 -60 65 -104 133 -141 218 l-20 47 47 -5 c39 -5 51 -2 69 15 44 42 40
104 -9 134 -34 22 -478 129 -505 122 -34 -8 -63 -45 -63 -79 1 -57 26 -75 150
-106 124 -30 124 -30 138 -90 17 -72 82 -209 136 -285 25 -34 81 -96 124 -136
66 -61 78 -78 72 -94 -19 -50 -40 -218 -40 -315 0 -313 117 -600 339 -833 l74
-77 -178 -653 c-97 -358 -188 -690 -202 -737 -34 -117 -86 -170 -170 -170 -55
0 -2050 546 -2084 571 -39 28 -73 101 -67 147 6 39 751 2778 769 2823 6 15 23
38 37 52 24 23 632 328 692 347 14 5 36 9 50 9 14 1 253 -61 531 -137z m1499
-345 c0 -38 -38 -176 -65 -234 l-24 -54 -38 20 c-181 92 -413 10 -505 -177
-31 -62 -33 -74 -33 -167 0 -87 3 -107 27 -157 53 -114 160 -195 286 -218 103
-18 216 12 304 82 80 63 138 187 138 293 0 54 -23 147 -45 178 -10 15 -6 29
27 92 49 94 73 164 89 258 l12 74 36 -9 c58 -16 197 -84 270 -132 242 -161
410 -444 440 -743 27 -260 -46 -512 -209 -727 -37 -50 -60 -89 -60 -105 0 -15
123 -280 274 -589 l273 -563 -86 -199 c-48 -110 -90 -202 -93 -205 -3 -4 -98
17 -210 46 -227 59 -248 71 -248 136 0 21 9 83 20 139 23 120 17 157 -34 202
-19 16 -64 40 -100 52 -76 25 -75 21 -50 148 29 144 2 185 -156 242 l-93 34
-52 110 c-29 61 -63 120 -75 131 -19 17 -42 21 -154 26 -158 8 -265 33 -392
93 -124 59 -204 115 -295 205 -466 466 -372 1255 190 1595 161 97 326 144 514
145 116 1 117 1 117 -22z m-237 -408 c20 -5 37 -14 37 -19 0 -32 -248 -190
-297 -190 -16 0 -16 6 2 66 22 69 65 116 132 140 46 16 77 17 126 3z m157
-201 c0 -146 -147 -251 -282 -202 -28 11 -53 24 -55 29 -2 6 19 19 46 29 57
20 214 121 250 160 34 36 41 33 41 -16z"/>
<path d="M533 1710 c-12 -5 -28 -19 -37 -32 -14 -23 -136 -460 -136 -490 0 -9
10 -28 23 -43 18 -21 65 -37 295 -100 150 -40 281 -71 290 -68 62 22 84 100
40 140 -15 14 -94 41 -233 78 -116 32 -213 60 -216 64 -4 3 15 85 42 181 27
96 49 185 49 197 0 49 -69 93 -117 73z"/>
<path d="M4125 2035 c-16 -15 -25 -36 -25 -54 0 -34 499 -1073 531 -1106 29
-30 86 -26 115 9 13 15 24 39 24 53 0 30 -502 1068 -533 1101 -28 31 -80 30
-112 -3z"/>
</g>
</svg>
