<?xml version="1.0" standalone="no"?>
<!DOCTYPE svg PUBLIC "-//W3C//DTD SVG 20010904//EN"
 "http://www.w3.org/TR/2001/REC-SVG-20010904/DTD/svg10.dtd">
<svg version="1.0" xmlns="http://www.w3.org/2000/svg"
 width="512.000000pt" height="512.000000pt" viewBox="0 0 512.000000 512.000000"
 preserveAspectRatio="xMidYMid meet">

<g transform="translate(0.000000,512.000000) scale(0.100000,-0.100000)"
fill="#000000" stroke="none">
<path d="M88 3673 c29 -2 74 -2 100 0 26 2 2 3 -53 3 -55 0 -76 -1 -47 -3z"/>
<path d="M653 3673 c59 -2 155 -2 215 0 59 1 10 3 -108 3 -118 0 -167 -2 -107
-3z"/>
<path d="M1333 3673 c26 -2 67 -2 90 0 23 2 2 3 -48 3 -49 0 -68 -1 -42 -3z"/>
<path d="M2343 3673 c59 -2 155 -2 215 0 59 1 10 3 -108 3 -118 0 -167 -2
-107 -3z"/>
<path d="M3088 3673 c68 -2 176 -2 240 0 64 1 9 3 -123 3 -132 0 -185 -2 -117
-3z"/>
<path d="M3848 3673 c28 -2 76 -2 105 0 28 2 5 3 -53 3 -58 0 -81 -1 -52 -3z"/>
<path d="M4203 3673 c26 -2 67 -2 90 0 23 2 2 3 -48 3 -49 0 -68 -1 -42 -3z"/>
<path d="M4978 3673 c23 -2 61 -2 85 0 23 2 4 4 -43 4 -47 0 -66 -2 -42 -4z"/>
<path d="M70 3632 c0 -15 123 -127 185 -169 231 -156 637 -293 1050 -353 232
-34 202 -16 253 -155 l45 -119 -231 -966 -230 -965 95 -220 95 -220 120 -28
119 -29 52 44 c29 23 112 92 184 152 l132 109 40 170 c31 127 38 173 29 178
-6 4 -40 13 -75 19 -35 7 -65 15 -68 19 -4 8 30 149 39 158 3 3 37 -2 76 -12
40 -10 75 -14 79 -9 11 13 113 453 107 463 -3 4 -31 13 -63 20 -100 21 -93 11
-72 97 10 42 21 79 24 82 3 3 34 0 68 -7 34 -8 68 -14 76 -15 11 -1 27 50 63
198 26 110 51 202 55 206 4 4 28 12 53 19 31 9 60 28 91 60 40 41 49 59 68
132 12 46 26 94 31 105 10 25 345 339 361 339 6 0 95 -128 200 -285 l189 -285
0 -95 c0 -78 4 -104 24 -145 23 -51 71 -100 113 -116 l23 -9 0 -215 0 -215 85
0 85 0 0 -85 0 -85 -85 0 -85 0 0 -245 0 -245 85 0 85 0 0 -85 0 -85 -85 0
-85 0 0 -177 0 -176 145 -194 145 -193 123 0 122 1 143 191 142 191 0 993 0
993 366 551 c329 495 407 623 429 698 6 21 5 22 -73 22 l-80 0 -13 -32 c-7
-18 -179 -282 -383 -585 l-370 -553 -368 0 -368 0 -235 352 -235 353 88 21 87
22 20 -24 c11 -13 97 -141 190 -283 l170 -260 284 2 285 2 253 382 252 383
-60 41 c-51 34 -63 39 -74 28 -7 -8 -115 -166 -239 -351 l-227 -338 -192 0
-192 0 -150 226 c-82 125 -151 230 -153 234 -2 4 21 16 50 25 29 10 86 31 127
47 l74 29 61 -22 c85 -29 231 -37 316 -15 139 35 267 125 342 240 21 32 38 63
38 68 0 4 -37 8 -82 8 l-83 0 -49 -50 c-27 -28 -77 -64 -111 -81 -87 -43 -258
-66 -191 -25 45 27 157 119 166 137 10 18 7 19 -101 19 -92 0 -116 -3 -137
-18 -183 -128 -612 -269 -1032 -341 -277 -48 -381 -56 -740 -56 -361 0 -436 5
-699 51 -378 65 -709 180 -915 318 l-69 46 -98 0 c-55 0 -99 -4 -99 -8z m2744
-517 c9 -13 16 -28 16 -33 0 -17 -359 -342 -377 -341 -10 0 -173 37 -363 83
l-345 82 -22 54 c-12 30 -24 66 -28 80 l-6 25 273 0 c282 1 482 16 698 54 140
24 135 25 154 -4z m-744 -447 c168 -39 309 -75 314 -79 4 -4 1 -32 -8 -63 -25
-84 -58 -99 -162 -70 -21 5 -24 -5 -69 -193 -26 -109 -49 -199 -50 -201 -2 -2
-38 6 -81 17 -43 11 -79 19 -79 18 -1 -1 -26 -108 -57 -237 l-55 -235 76 -19
c42 -10 78 -20 80 -22 5 -4 -30 -147 -39 -157 -3 -4 -39 0 -78 10 -39 9 -74
14 -77 11 -3 -3 -30 -108 -60 -234 -40 -162 -52 -230 -44 -235 7 -4 39 -12 73
-19 33 -7 64 -16 68 -19 4 -3 -1 -36 -10 -73 l-17 -66 -134 -110 -133 -110
-41 12 -41 12 -69 157 -68 157 211 893 c245 1032 218 927 233 927 7 0 149 -32
317 -72z m2060 -1290 l0 -943 -103 -135 c-100 -132 -103 -135 -144 -138 l-42
-3 -105 140 -106 140 0 71 0 70 85 0 85 0 0 245 0 245 -85 0 -85 0 0 85 0 85
85 0 85 0 0 245 0 245 -85 0 -85 0 0 205 0 205 -45 0 c-60 0 -100 22 -114 61
-12 35 -15 102 -4 112 3 4 154 7 335 7 l328 0 0 -942z"/>
<path d="M631 3636 c10 -11 168 -68 274 -100 653 -198 1476 -191 2200 19 83
24 173 53 200 64 l50 20 -275 0 c-194 0 -294 -4 -338 -13 -54 -12 -64 -12 -69
0 -4 10 -26 14 -85 14 -80 0 -80 0 -74 -24 7 -30 6 -31 -144 -48 -130 -15
-654 -18 -791 -5 -86 9 -87 9 -96 40 l-9 32 -83 3 c-79 3 -82 2 -76 -18 8 -25
5 -25 -114 0 -79 17 -133 20 -334 20 -132 0 -238 -2 -236 -4z"/>
</g>
</svg>
